<svg width="180" height="15" viewBox="0 0 180 15" fill="none" xmlns="http://www.w3.org/2000/svg">
<path d="M0.54 14V1.06H9.32C10.32 1.06 11.1867 1.2 11.92 1.48C12.6667 1.74667 13.2467 2.17333 13.66 2.76C14.0733 3.33333 14.28 4.07333 14.28 4.98C14.28 5.59333 14.1733 6.11333 13.96 6.54C13.7467 6.96667 13.4467 7.31333 13.06 7.58C12.6867 7.84667 12.2533 8.05333 11.76 8.2C11.2667 8.33333 10.74 8.42 10.18 8.46L9.9 8.3C10.8333 8.31333 11.6 8.39333 12.2 8.54C12.8 8.67333 13.2467 8.92667 13.54 9.3C13.8467 9.66 14 10.2 14 10.92V14H11.34V11.1C11.34 10.6067 11.2533 10.2267 11.08 9.96C10.9067 9.68 10.5933 9.48667 10.14 9.38C9.7 9.27333 9.06 9.22 8.22 9.22H3.2V14H0.54ZM3.2 7.14H9.32C10.0667 7.14 10.6333 6.96 11.02 6.6C11.42 6.24 11.62 5.75333 11.62 5.14C11.62 4.55333 11.42 4.10667 11.02 3.8C10.6333 3.49333 10.0667 3.34 9.32 3.34H3.2V7.14ZM22.5248 14.24C21.2715 14.24 20.1648 14.04 19.2048 13.64C18.2582 13.24 17.5182 12.66 16.9848 11.9C16.4515 11.1267 16.1848 10.18 16.1848 9.06C16.1848 7.94 16.4515 6.99333 16.9848 6.22C17.5182 5.43333 18.2582 4.84 19.2048 4.44C20.1648 4.04 21.2715 3.84 22.5248 3.84C23.7782 3.84 24.8715 4.04 25.8048 4.44C26.7515 4.84 27.4915 5.43333 28.0248 6.22C28.5582 6.99333 28.8248 7.94 28.8248 9.06C28.8248 10.18 28.5582 11.1267 28.0248 11.9C27.4915 12.66 26.7515 13.24 25.8048 13.64C24.8715 14.04 23.7782 14.24 22.5248 14.24ZM22.5248 12.24C23.2182 12.24 23.8382 12.12 24.3848 11.88C24.9448 11.6267 25.3848 11.2667 25.7048 10.8C26.0248 10.32 26.1848 9.74 26.1848 9.06C26.1848 8.38 26.0248 7.8 25.7048 7.32C25.3848 6.82667 24.9515 6.45333 24.4048 6.2C23.8582 5.94667 23.2315 5.82 22.5248 5.82C21.8315 5.82 21.2048 5.94667 20.6448 6.2C20.0848 6.45333 19.6382 6.82 19.3048 7.3C18.9848 7.78 18.8248 8.36667 18.8248 9.06C18.8248 9.74 18.9848 10.32 19.3048 10.8C19.6248 11.2667 20.0648 11.6267 20.6248 11.88C21.1848 12.12 21.8182 12.24 22.5248 12.24ZM30.9469 0.0599995H33.5469V14H30.9469V0.0599995ZM36.3766 0.0599995H38.9766V14H36.3766V0.0599995ZM50.6663 10.7H53.1863C53.0796 11.38 52.7929 11.9867 52.3263 12.52C51.8729 13.0533 51.2529 13.4733 50.4663 13.78C49.6796 14.0867 48.7196 14.24 47.5863 14.24C46.3196 14.24 45.1996 14.04 44.2263 13.64C43.2529 13.2267 42.4929 12.6333 41.9463 11.86C41.3996 11.0867 41.1263 10.1533 41.1263 9.06C41.1263 7.96667 41.3929 7.03333 41.9263 6.26C42.4596 5.47333 43.1996 4.87333 44.1463 4.46C45.1063 4.04667 46.2263 3.84 47.5063 3.84C48.8129 3.84 49.8996 4.04667 50.7663 4.46C51.6329 4.87333 52.2729 5.5 52.6863 6.34C53.1129 7.16667 53.2929 8.22667 53.2263 9.52H43.7463C43.8129 10.0267 43.9996 10.4867 44.3063 10.9C44.6263 11.3133 45.0529 11.64 45.5863 11.88C46.1329 12.12 46.7796 12.24 47.5263 12.24C48.3529 12.24 49.0396 12.1 49.5863 11.82C50.1463 11.5267 50.5063 11.1533 50.6663 10.7ZM47.3863 5.82C46.4263 5.82 45.6463 6.03333 45.0463 6.46C44.4463 6.87333 44.0596 7.38667 43.8863 8H50.6463C50.5796 7.33333 50.2596 6.80667 49.6863 6.42C49.1263 6.02 48.3596 5.82 47.3863 5.82ZM55.1609 4.06H57.7609V14H55.1609V4.06ZM61.5809 6.2C60.8343 6.2 60.1876 6.34667 59.6409 6.64C59.0943 6.92 58.6543 7.26667 58.3209 7.68C57.9876 8.09333 57.7543 8.49333 57.6209 8.88L57.6009 7.78C57.6143 7.62 57.6676 7.38667 57.7609 7.08C57.8543 6.76 57.9943 6.42 58.1809 6.06C58.3676 5.68667 58.6143 5.33333 58.9209 5C59.2276 4.65333 59.6009 4.37333 60.0409 4.16C60.4809 3.94667 60.9943 3.84 61.5809 3.84V6.2ZM67.4925 9.64H70.1925C70.2458 10.0933 70.4525 10.5067 70.8125 10.88C71.1858 11.24 71.6725 11.5267 72.2725 11.74C72.8725 11.94 73.5458 12.04 74.2925 12.04C74.9725 12.04 75.5325 11.9667 75.9725 11.82C76.4125 11.6733 76.7392 11.4667 76.9525 11.2C77.1658 10.9333 77.2725 10.6133 77.2725 10.24C77.2725 9.88 77.1392 9.60667 76.8725 9.42C76.6058 9.22 76.1858 9.06 75.6125 8.94C75.0392 8.80667 74.2858 8.67333 73.3525 8.54C72.6192 8.43333 71.9258 8.28667 71.2725 8.1C70.6192 7.9 70.0392 7.64667 69.5325 7.34C69.0392 7.03333 68.6458 6.66 68.3525 6.22C68.0725 5.76667 67.9325 5.23333 67.9325 4.62C67.9325 3.86 68.1458 3.19333 68.5725 2.62C69.0125 2.04667 69.6592 1.6 70.5125 1.28C71.3658 0.959999 72.4125 0.799999 73.6525 0.799999C75.5192 0.799999 76.9525 1.2 77.9525 2C78.9658 2.78667 79.4592 3.87333 79.4325 5.26H76.8325C76.7792 4.47333 76.4458 3.90667 75.8325 3.56C75.2325 3.21333 74.4725 3.04 73.5525 3.04C72.6992 3.04 71.9925 3.16667 71.4325 3.42C70.8858 3.67333 70.6125 4.10667 70.6125 4.72C70.6125 4.96 70.6792 5.17333 70.8125 5.36C70.9458 5.53333 71.1725 5.68667 71.4925 5.82C71.8125 5.95333 72.2458 6.08 72.7925 6.2C73.3392 6.32 74.0192 6.44 74.8325 6.56C75.5925 6.66667 76.2792 6.81333 76.8925 7C77.5192 7.17333 78.0525 7.40667 78.4925 7.7C78.9458 7.98 79.2925 8.34 79.5325 8.78C79.7725 9.22 79.8925 9.76 79.8925 10.4C79.8925 11.1867 79.6858 11.8733 79.2725 12.46C78.8725 13.0333 78.2458 13.48 77.3925 13.8C76.5525 14.12 75.4592 14.28 74.1125 14.28C73.1525 14.28 72.3058 14.18 71.5725 13.98C70.8392 13.7667 70.2058 13.4867 69.6725 13.14C69.1392 12.7933 68.7058 12.4133 68.3725 12C68.0392 11.5867 67.7992 11.1733 67.6525 10.76C67.5192 10.3467 67.4658 9.97333 67.4925 9.64ZM82.0792 0.0599995H84.6792V14H82.0792V0.0599995ZM93.0592 4.06L87.1392 9.28L87.1992 7.68L93.5192 14H90.2192L84.7392 8.42L89.5192 4.06H93.0592ZM99.1611 14.22C98.1744 14.22 97.2744 14.0067 96.4611 13.58C95.6611 13.14 95.0211 12.5333 94.5411 11.76C94.0744 10.9733 93.8411 10.0667 93.8411 9.04C93.8411 7.98667 94.0811 7.07333 94.5611 6.3C95.0411 5.52667 95.6878 4.92667 96.5011 4.5C97.3278 4.06 98.2611 3.84 99.3011 3.84C100.448 3.84 101.368 4.07333 102.061 4.54C102.768 4.99333 103.281 5.61333 103.601 6.4C103.921 7.18667 104.081 8.06667 104.081 9.04C104.081 9.62667 103.988 10.2267 103.801 10.84C103.614 11.44 103.328 12 102.941 12.52C102.554 13.0267 102.048 13.44 101.421 13.76C100.794 14.0667 100.041 14.22 99.1611 14.22ZM100.001 12.22C100.788 12.22 101.468 12.0867 102.041 11.82C102.614 11.5533 103.054 11.18 103.361 10.7C103.668 10.22 103.821 9.66667 103.821 9.04C103.821 8.36 103.661 7.78667 103.341 7.32C103.034 6.84 102.594 6.48 102.021 6.24C101.461 5.98667 100.788 5.86 100.001 5.86C98.8944 5.86 98.0344 6.15333 97.4211 6.74C96.8078 7.31333 96.5011 8.08 96.5011 9.04C96.5011 9.68 96.6478 10.24 96.9411 10.72C97.2344 11.1867 97.6411 11.5533 98.1611 11.82C98.6944 12.0867 99.3078 12.22 100.001 12.22ZM103.821 4.06H106.421V14H104.001C104.001 14 103.981 13.8733 103.941 13.62C103.914 13.3533 103.888 13.02 103.861 12.62C103.834 12.22 103.821 11.8267 103.821 11.44V4.06ZM108.074 4.06H115.794V6.08H108.074V4.06ZM110.634 1.34H113.234V14H110.634V1.34ZM126.369 10.7H128.889C128.783 11.38 128.496 11.9867 128.029 12.52C127.576 13.0533 126.956 13.4733 126.169 13.78C125.383 14.0867 124.423 14.24 123.289 14.24C122.023 14.24 120.903 14.04 119.929 13.64C118.956 13.2267 118.196 12.6333 117.649 11.86C117.103 11.0867 116.829 10.1533 116.829 9.06C116.829 7.96667 117.096 7.03333 117.629 6.26C118.163 5.47333 118.903 4.87333 119.849 4.46C120.809 4.04667 121.929 3.84 123.209 3.84C124.516 3.84 125.603 4.04667 126.469 4.46C127.336 4.87333 127.976 5.5 128.389 6.34C128.816 7.16667 128.996 8.22667 128.929 9.52H119.449C119.516 10.0267 119.703 10.4867 120.009 10.9C120.329 11.3133 120.756 11.64 121.289 11.88C121.836 12.12 122.483 12.24 123.229 12.24C124.056 12.24 124.743 12.1 125.289 11.82C125.849 11.5267 126.209 11.1533 126.369 10.7ZM123.089 5.82C122.129 5.82 121.349 6.03333 120.749 6.46C120.149 6.87333 119.763 7.38667 119.589 8H126.349C126.283 7.33333 125.963 6.80667 125.389 6.42C124.829 6.02 124.063 5.82 123.089 5.82ZM130.464 10.7H132.864C133.011 11.1533 133.311 11.5267 133.764 11.82C134.231 12.1 134.837 12.24 135.584 12.24C136.091 12.24 136.484 12.1933 136.764 12.1C137.044 12.0067 137.237 11.8733 137.344 11.7C137.451 11.5133 137.504 11.3067 137.504 11.08C137.504 10.8 137.417 10.5867 137.244 10.44C137.071 10.28 136.804 10.1533 136.444 10.06C136.084 9.96667 135.624 9.88 135.064 9.8C134.504 9.70667 133.964 9.59333 133.444 9.46C132.924 9.32667 132.464 9.15333 132.064 8.94C131.664 8.71333 131.344 8.43333 131.104 8.1C130.877 7.75333 130.764 7.33333 130.764 6.84C130.764 6.36 130.877 5.93333 131.104 5.56C131.344 5.18667 131.671 4.87333 132.084 4.62C132.511 4.36667 133.004 4.17333 133.564 4.04C134.137 3.90667 134.751 3.84 135.404 3.84C136.391 3.84 137.211 3.98667 137.864 4.28C138.517 4.56 139.004 4.96 139.324 5.48C139.657 5.98667 139.824 6.57333 139.824 7.24H137.524C137.417 6.74667 137.204 6.39333 136.884 6.18C136.564 5.95333 136.071 5.84 135.404 5.84C134.751 5.84 134.257 5.94 133.924 6.14C133.591 6.34 133.424 6.61333 133.424 6.96C133.424 7.24 133.524 7.46 133.724 7.62C133.937 7.76667 134.244 7.88667 134.644 7.98C135.057 8.07333 135.571 8.17333 136.184 8.28C136.704 8.38667 137.197 8.50667 137.664 8.64C138.144 8.77333 138.571 8.94667 138.944 9.16C139.317 9.36 139.611 9.63333 139.824 9.98C140.051 10.3133 140.164 10.74 140.164 11.26C140.164 11.9 139.977 12.44 139.604 12.88C139.244 13.32 138.724 13.66 138.044 13.9C137.364 14.1267 136.551 14.24 135.604 14.24C134.764 14.24 134.037 14.1533 133.424 13.98C132.824 13.7933 132.324 13.56 131.924 13.28C131.524 12.9867 131.211 12.68 130.984 12.36C130.771 12.0267 130.624 11.7133 130.544 11.42C130.464 11.1267 130.437 10.8867 130.464 10.7Z" fill="black"/>
<path d="M172.062 1.5345C172.384 0.663886 173.616 0.663887 173.938 1.53451L175.001 4.40803C175.102 4.68175 175.318 4.89756 175.592 4.99885L178.465 6.06215C179.336 6.38431 179.336 7.61569 178.465 7.93785L175.592 9.00115C175.318 9.10244 175.102 9.31825 175.001 9.59197L173.938 12.4655C173.616 13.3361 172.384 13.3361 172.062 12.4655L170.999 9.59197C170.898 9.31825 170.682 9.10244 170.408 9.00115L167.535 7.93785C166.664 7.61569 166.664 6.38431 167.535 6.06215L170.408 4.99885C170.682 4.89756 170.898 4.68175 170.999 4.40803L172.062 1.5345Z" fill="black"/>
</svg>
